<?xml version="1.0" encoding="UTF-8" standalone="no"?>
<!DOCTYPE svg PUBLIC "-//W3C//DTD SVG 1.1//EN" "http://www.w3.org/Graphics/SVG/1.1/DTD/svg11.dtd">
<svg width="100%" height="100%" viewBox="0 0 68 12" version="1.1" xmlns="http://www.w3.org/2000/svg" xmlns:xlink="http://www.w3.org/1999/xlink" xml:space="preserve" xmlns:serif="http://www.serif.com/" style="fill-rule:evenodd;clip-rule:evenodd;stroke-linejoin:round;stroke-miterlimit:2;">
    <path d="M6.323,0.888C6.119,0.791 5.881,0.791 5.677,0.888C5.501,0.972 5.403,1.118 5.354,1.198C5.304,1.281 5.252,1.387 5.201,1.49L4.123,3.673L1.712,4.026C1.598,4.042 1.482,4.059 1.387,4.082C1.296,4.104 1.127,4.152 0.993,4.293C0.837,4.458 0.764,4.683 0.794,4.907C0.819,5.101 0.928,5.239 0.989,5.31C1.052,5.384 1.137,5.466 1.219,5.546L2.963,7.245L2.551,9.644C2.532,9.757 2.512,9.873 2.504,9.97C2.497,10.064 2.49,10.239 2.583,10.411C2.691,10.61 2.883,10.749 3.105,10.791C3.298,10.826 3.462,10.765 3.549,10.729C3.639,10.692 3.743,10.637 3.845,10.584L6,9.45L8.155,10.584C8.257,10.637 8.361,10.692 8.451,10.729C8.538,10.765 8.702,10.826 8.895,10.791C9.117,10.749 9.309,10.61 9.417,10.411C9.51,10.239 9.503,10.064 9.496,9.97C9.488,9.873 9.468,9.757 9.449,9.644L9.037,7.245L10.781,5.546C10.863,5.466 10.948,5.384 11.011,5.31C11.072,5.239 11.181,5.101 11.207,4.907C11.236,4.683 11.163,4.458 11.007,4.293C10.873,4.152 10.704,4.104 10.613,4.082C10.518,4.059 10.402,4.042 10.288,4.026L7.877,3.673L6.799,1.49C6.749,1.387 6.696,1.281 6.646,1.198C6.597,1.118 6.499,0.972 6.323,0.888Z" style="fill:rgb(35,31,32);fill-rule:nonzero;"/>
    <path d="M20.323,0.888C20.119,0.791 19.881,0.791 19.677,0.888C19.501,0.972 19.403,1.118 19.354,1.198C19.304,1.281 19.252,1.387 19.201,1.49L18.123,3.673L15.712,4.026C15.598,4.042 15.482,4.059 15.387,4.082C15.296,4.104 15.127,4.152 14.993,4.293C14.837,4.458 14.764,4.683 14.794,4.907C14.819,5.101 14.928,5.239 14.989,5.31C15.052,5.384 15.137,5.466 15.219,5.546L16.963,7.245L16.551,9.644C16.532,9.757 16.512,9.873 16.504,9.97C16.497,10.064 16.49,10.239 16.583,10.411C16.691,10.61 16.883,10.749 17.105,10.791C17.298,10.826 17.462,10.765 17.549,10.729C17.639,10.692 17.743,10.637 17.845,10.584L20,9.45L22.155,10.584C22.257,10.637 22.361,10.692 22.451,10.729C22.538,10.765 22.702,10.826 22.895,10.791C23.117,10.749 23.309,10.61 23.417,10.411C23.51,10.239 23.503,10.064 23.496,9.97C23.488,9.873 23.468,9.757 23.449,9.644L23.037,7.245L24.781,5.546C24.863,5.466 24.948,5.384 25.011,5.31C25.072,5.239 25.181,5.101 25.206,4.907C25.236,4.683 25.163,4.458 25.007,4.293C24.873,4.152 24.704,4.104 24.613,4.082C24.518,4.059 24.402,4.042 24.288,4.026L21.877,3.673L20.799,1.49C20.749,1.387 20.696,1.281 20.646,1.198C20.597,1.118 20.499,0.972 20.323,0.888Z" style="fill:rgb(35,31,32);fill-rule:nonzero;"/>
    <path d="M34.323,0.888C34.119,0.791 33.881,0.791 33.677,0.888C33.501,0.972 33.403,1.118 33.354,1.198C33.304,1.281 33.252,1.387 33.201,1.49L32.123,3.673L29.712,4.026C29.598,4.042 29.482,4.059 29.387,4.082C29.296,4.104 29.127,4.152 28.993,4.293C28.837,4.458 28.764,4.683 28.794,4.907C28.819,5.101 28.928,5.239 28.989,5.31C29.052,5.384 29.137,5.466 29.219,5.546L30.963,7.245L30.551,9.644C30.532,9.757 30.512,9.873 30.504,9.97C30.497,10.064 30.49,10.239 30.583,10.411C30.691,10.61 30.883,10.749 31.105,10.791C31.298,10.826 31.462,10.765 31.549,10.729C31.639,10.692 31.743,10.637 31.845,10.584L34,9.45L36.155,10.584C36.257,10.637 36.361,10.692 36.451,10.729C36.538,10.765 36.702,10.826 36.895,10.791C37.117,10.749 37.309,10.61 37.417,10.411C37.51,10.239 37.503,10.064 37.496,9.97C37.488,9.873 37.468,9.757 37.449,9.644L37.037,7.245L38.781,5.546C38.863,5.466 38.948,5.384 39.011,5.31C39.072,5.239 39.181,5.101 39.207,4.907C39.236,4.683 39.163,4.458 39.007,4.293C38.873,4.152 38.704,4.104 38.613,4.082C38.518,4.059 38.402,4.042 38.288,4.026L35.877,3.673L34.799,1.49C34.749,1.387 34.696,1.281 34.646,1.198C34.597,1.118 34.499,0.972 34.323,0.888Z" style="fill:rgb(35,31,32);fill-rule:nonzero;"/>
    <path d="M48.323,0.888C48.119,0.791 47.881,0.791 47.677,0.888C47.501,0.972 47.403,1.118 47.354,1.198C47.304,1.281 47.252,1.387 47.201,1.49L46.123,3.673L43.712,4.026C43.598,4.042 43.482,4.059 43.387,4.082C43.296,4.104 43.127,4.152 42.993,4.293C42.837,4.458 42.764,4.683 42.794,4.907C42.819,5.101 42.928,5.239 42.989,5.31C43.052,5.384 43.137,5.466 43.219,5.546L44.963,7.245L44.551,9.644C44.532,9.757 44.512,9.873 44.504,9.97C44.497,10.064 44.49,10.239 44.583,10.411C44.691,10.61 44.883,10.749 45.105,10.791C45.298,10.826 45.462,10.765 45.549,10.729C45.639,10.692 45.743,10.637 45.845,10.584L48,9.45L50.155,10.584C50.257,10.637 50.361,10.692 50.451,10.729C50.538,10.765 50.702,10.826 50.895,10.791C51.117,10.749 51.309,10.61 51.417,10.411C51.51,10.239 51.503,10.064 51.496,9.97C51.488,9.873 51.468,9.757 51.449,9.644L51.037,7.245L52.781,5.546C52.863,5.466 52.948,5.384 53.011,5.31C53.072,5.239 53.181,5.101 53.207,4.907C53.236,4.683 53.163,4.458 53.007,4.293C52.873,4.152 52.704,4.104 52.613,4.082C52.518,4.059 52.402,4.042 52.288,4.026L49.877,3.673L48.799,1.49C48.749,1.387 48.696,1.281 48.646,1.198C48.597,1.118 48.499,0.972 48.323,0.888Z" style="fill:rgb(35,31,32);fill-rule:nonzero;"/>
    <path d="M62.323,0.888C62.119,0.791 61.881,0.791 61.677,0.888C61.501,0.972 61.403,1.118 61.354,1.198C61.304,1.281 61.252,1.387 61.201,1.49L60.123,3.673L57.712,4.026C57.598,4.042 57.482,4.059 57.387,4.082C57.296,4.104 57.127,4.152 56.993,4.293C56.837,4.458 56.764,4.683 56.794,4.907C56.819,5.101 56.928,5.239 56.989,5.31C57.052,5.384 57.137,5.466 57.219,5.546L58.963,7.245L58.551,9.644C58.532,9.757 58.512,9.873 58.504,9.97C58.497,10.064 58.49,10.239 58.583,10.411C58.691,10.61 58.883,10.749 59.105,10.791C59.298,10.826 59.462,10.765 59.549,10.729C59.639,10.692 59.743,10.637 59.845,10.584L62,9.45L64.155,10.584C64.257,10.637 64.361,10.692 64.451,10.729C64.538,10.765 64.702,10.826 64.895,10.791C65.117,10.749 65.309,10.61 65.417,10.411C65.51,10.239 65.503,10.064 65.496,9.97C65.488,9.873 65.468,9.757 65.449,9.644L65.037,7.245L66.781,5.546C66.863,5.466 66.948,5.384 67.011,5.31C67.072,5.239 67.181,5.101 67.207,4.907C67.236,4.683 67.163,4.458 67.007,4.293C66.873,4.152 66.704,4.104 66.613,4.082C66.518,4.059 66.402,4.042 66.288,4.026L63.877,3.673L62.799,1.49C62.749,1.387 62.696,1.281 62.646,1.198C62.597,1.118 62.499,0.972 62.323,0.888Z" style="fill:rgb(35,31,32);fill-rule:nonzero;"/>
</svg>
