<?xml version="1.0" encoding="UTF-8" standalone="no"?>
<!DOCTYPE svg PUBLIC "-//W3C//DTD SVG 1.1//EN" "http://www.w3.org/Graphics/SVG/1.1/DTD/svg11.dtd">
<svg width="100%" height="100%" viewBox="0 0 20 20" version="1.1" xmlns="http://www.w3.org/2000/svg" xmlns:xlink="http://www.w3.org/1999/xlink" xml:space="preserve" xmlns:serif="http://www.serif.com/" style="fill-rule: evenodd; clip-rule: evenodd; stroke-linejoin: round; stroke-miterlimit: 2">
    <path d="M14.252,9L3.333,9C2.781,9 2.333,9.448 2.333,10C2.333,10.552 2.781,11 3.333,11L14.252,11L10.96,14.293C10.569,14.683 10.569,15.317 10.96,15.707C11.35,16.097 11.984,16.097 12.374,15.707L17.374,10.707C17.431,10.65 17.48,10.587 17.52,10.521L17.593,10.376L17.638,10.236C17.657,10.16 17.667,10.081 17.667,10C17.667,9.919 17.657,9.84 17.638,9.764L17.588,9.611L17.502,9.45L17.409,9.33L17.374,9.293L12.374,4.293C11.984,3.903 11.35,3.903 10.96,4.293C10.569,4.683 10.569,5.317 10.96,5.707L14.252,9Z" style="fill: #5c553a"></path>
</svg>
