<svg xmlns="http://www.w3.org/2000/svg" xml:space="preserve" style="fill-rule:evenodd;clip-rule:evenodd;stroke-linejoin:round;stroke-miterlimit:2" viewBox="0 0 68 12"><path d="M6.323.888a.75.75 0 0 0-.646 0 .8.8 0 0 0-.323.31c-.05.083-.102.189-.153.292L4.123 3.673l-2.411.353c-.114.016-.23.033-.325.056a.8.8 0 0 0-.394.211.75.75 0 0 0-.199.614.77.77 0 0 0 .195.403c.063.074.148.156.23.236l1.744 1.699-.412 2.399c-.019.113-.039.229-.047.326a.8.8 0 0 0 .079.441c.108.199.3.338.522.38a.8.8 0 0 0 .444-.062c.09-.037.194-.092.296-.145L6 9.45l2.155 1.134c.102.053.206.108.296.145a.8.8 0 0 0 .444.062.75.75 0 0 0 .522-.38.8.8 0 0 0 .079-.441c-.008-.097-.028-.213-.047-.326l-.412-2.399 1.744-1.699c.082-.08.167-.162.23-.236a.8.8 0 0 0 .196-.403.75.75 0 0 0-.2-.614.8.8 0 0 0-.394-.211 4 4 0 0 0-.325-.056l-2.411-.353L6.799 1.49a4 4 0 0 0-.153-.292.8.8 0 0 0-.323-.31M20.323.888a.75.75 0 0 0-.646 0 .8.8 0 0 0-.323.31c-.05.083-.102.189-.153.292l-1.078 2.183-2.411.353c-.114.016-.23.033-.325.056a.8.8 0 0 0-.394.211.75.75 0 0 0-.199.614.77.77 0 0 0 .195.403c.063.074.148.156.23.236l1.744 1.699-.412 2.399c-.019.113-.039.229-.047.326a.8.8 0 0 0 .079.441c.108.199.3.338.522.38a.8.8 0 0 0 .444-.062c.09-.037.194-.092.296-.145L20 9.45l2.155 1.134c.102.053.206.108.296.145a.8.8 0 0 0 .444.062.75.75 0 0 0 .522-.38.8.8 0 0 0 .079-.441c-.008-.097-.028-.213-.047-.326l-.412-2.399 1.744-1.699c.082-.08.167-.162.23-.236a.77.77 0 0 0 .195-.403.75.75 0 0 0-.199-.614.8.8 0 0 0-.394-.211 4 4 0 0 0-.325-.056l-2.411-.353-1.078-2.183a4 4 0 0 0-.153-.292.8.8 0 0 0-.323-.31M34.323.888a.75.75 0 0 0-.646 0 .8.8 0 0 0-.323.31c-.05.083-.102.189-.153.292l-1.078 2.183-2.411.353c-.114.016-.23.033-.325.056a.8.8 0 0 0-.394.211.75.75 0 0 0-.199.614.77.77 0 0 0 .195.403c.063.074.148.156.23.236l1.744 1.699-.412 2.399c-.019.113-.039.229-.047.326a.8.8 0 0 0 .079.441c.108.199.3.338.522.38a.8.8 0 0 0 .444-.062c.09-.037.194-.092.296-.145L34 9.45l2.155 1.134c.102.053.206.108.296.145a.8.8 0 0 0 .444.062.75.75 0 0 0 .522-.38.8.8 0 0 0 .079-.441c-.008-.097-.028-.213-.047-.326l-.412-2.399 1.744-1.699c.082-.08.167-.162.23-.236a.8.8 0 0 0 .196-.403.75.75 0 0 0-.2-.614.8.8 0 0 0-.394-.211 4 4 0 0 0-.325-.056l-2.411-.353-1.078-2.183a4 4 0 0 0-.153-.292.8.8 0 0 0-.323-.31M48.323.888a.75.75 0 0 0-.646 0 .8.8 0 0 0-.323.31c-.05.083-.102.189-.153.292l-1.078 2.183-2.411.353c-.114.016-.23.033-.325.056a.8.8 0 0 0-.394.211.75.75 0 0 0-.199.614.77.77 0 0 0 .195.403c.063.074.148.156.23.236l1.744 1.699-.412 2.399c-.019.113-.039.229-.047.326a.8.8 0 0 0 .079.441c.108.199.3.338.522.38a.8.8 0 0 0 .444-.062c.09-.037.194-.092.296-.145L48 9.45l2.155 1.134c.102.053.206.108.296.145a.8.8 0 0 0 .444.062.75.75 0 0 0 .522-.38.8.8 0 0 0 .079-.441c-.008-.097-.028-.213-.047-.326l-.412-2.399 1.744-1.699c.082-.08.167-.162.23-.236a.8.8 0 0 0 .196-.403.75.75 0 0 0-.2-.614.8.8 0 0 0-.394-.211 4 4 0 0 0-.325-.056l-2.411-.353-1.078-2.183a4 4 0 0 0-.153-.292.8.8 0 0 0-.323-.31M62.323.888a.75.75 0 0 0-.646 0 .8.8 0 0 0-.323.31c-.05.083-.102.189-.153.292l-1.078 2.183-2.411.353c-.114.016-.23.033-.325.056a.8.8 0 0 0-.394.211.75.75 0 0 0-.199.614.77.77 0 0 0 .195.403c.063.074.148.156.23.236l1.744 1.699-.412 2.399c-.019.113-.039.229-.047.326a.8.8 0 0 0 .079.441c.108.199.3.338.522.38a.8.8 0 0 0 .444-.062c.09-.037.194-.092.296-.145L62 9.45l2.155 1.134c.102.053.206.108.296.145a.8.8 0 0 0 .444.062.75.75 0 0 0 .522-.38.8.8 0 0 0 .079-.441c-.008-.097-.028-.213-.047-.326l-.412-2.399 1.744-1.699c.082-.08.167-.162.23-.236a.8.8 0 0 0 .196-.403.75.75 0 0 0-.2-.614.8.8 0 0 0-.394-.211 4 4 0 0 0-.325-.056l-2.411-.353-1.078-2.183a4 4 0 0 0-.153-.292.8.8 0 0 0-.323-.31" style="fill:#231f20;fill-rule:nonzero"/></svg>